# xmcd
#
# Track frame offsets:
# 150
# 16860
# 33597
# 49837
# 69397
# 86315
# 103885
# 126015
# 140565
# 158087
# 174230
# 190817
#
# Disc length: 2822 seconds
#
#
# Revision: 1
# Processed by: cddbd v1.5.1PL2 Copyright (c) Steve Scherf et al.
# Submitted via: FreeRIP 2.944 
#
DISCID=970b040c
DTITLE=Monoblond - Gum
DYEAR=2001
DGENRE=Indie
TTITLE0=It's alright
TTITLE1=Big Boom
TTITLE2=Beautiful
TTITLE3=Be my Girl
TTITLE4=Monostereo
TTITLE5=Feel you
TTITLE6=Mercy
TTITLE7=Record
TTITLE8=Superstar
TTITLE9=Love yourself
TTITLE10=Celebrate
TTITLE11=Black day
EXTD=
EXTT0=
EXTT1=
EXTT2=
EXTT3=
EXTT4=
EXTT5=
EXTT6=
EXTT7=
EXTT8=
EXTT9=
EXTT10=
EXTT11=
PLAYORDER=
